<?xml version="1.0" encoding="UTF-8" standalone="no"?>
<svg
   xmlns:dc="http://purl.org/dc/elements/1.1/"
   xmlns:cc="http://creativecommons.org/ns#"
   xmlns:rdf="http://www.w3.org/1999/02/22-rdf-syntax-ns#"
   xmlns:svg="http://www.w3.org/2000/svg"
   xmlns="http://www.w3.org/2000/svg"
   xmlns:sodipodi="http://sodipodi.sourceforge.net/DTD/sodipodi-0.dtd"
   xmlns:inkscape="http://www.inkscape.org/namespaces/inkscape"
   sodipodi:docname="textrude_logo.svg"
   inkscape:version="1.0.1 (3bc2e813f5, 2020-09-07)"
   id="svg8"
   version="1.1"
   viewBox="0 0 205.63282 40.749125"
   height="154.01244"
   width="774.60272"
   inkscape:export-filename="C:\Users\highs\Pictures\textrude_logo.png"
   inkscape:export-xdpi="96"
   inkscape:export-ydpi="96">
  <defs
     id="defs2">
    <inkscape:path-effect
       effect="mirror_symmetry"
       start_point="254,0"
       end_point="254,285.75"
       center_point="254,142.875"
       id="path-effect1235"
       is_visible="true"
       lpeversion="1"
       mode="X"
       discard_orig_path="false"
       fuse_paths="false"
       oposite_fuse="false"
       split_items="false" />
    <inkscape:path-effect
       effect="offset"
       id="path-effect4504"
       is_visible="true"
       lpeversion="1"
       linejoin_type="miter"
       unit="px"
       offset="-12.394946"
       miter_limit="4"
       attempt_force_join="true"
       update_on_knot_move="true" />
    <inkscape:path-effect
       effect="offset"
       id="path-effect4345"
       is_visible="true"
       lpeversion="1"
       linejoin_type="miter"
       unit="px"
       offset="-238.27657"
       miter_limit="4"
       attempt_force_join="true"
       update_on_knot_move="true" />
    <inkscape:path-effect
       effect="offset"
       id="path-effect4256"
       is_visible="true"
       lpeversion="1"
       linejoin_type="miter"
       unit="px"
       offset="-1.1677"
       miter_limit="4"
       attempt_force_join="true"
       update_on_knot_move="true" />
    <inkscape:path-effect
       effect="offset"
       id="path-effect4250"
       is_visible="true"
       lpeversion="1"
       linejoin_type="miter"
       unit="px"
       offset="-1.9"
       miter_limit="4"
       attempt_force_join="true"
       update_on_knot_move="true" />
    <inkscape:path-effect
       effect="perspective-envelope"
       up_left_point="25.269531,363.12305"
       up_right_point="304.81553,363.1239"
       down_left_point="44.554957,411.73837"
       down_right_point="324.09961,411.73828"
       id="path-effect1209"
       is_visible="true"
       lpeversion="1"
       deform_type="perspective"
       horizontal_mirror="false"
       vertical_mirror="false"
       overflow_perspective="false" />
    <inkscape:path-effect
       effect="perspective-envelope"
       up_left_point="11.686263,736.62392"
       up_right_point="191.3567,736.62392"
       down_left_point="-61.041016,779.38672"
       down_right_point="264.08398,779.38672"
       id="path-effect916"
       is_visible="true"
       lpeversion="1"
       deform_type="perspective"
       horizontal_mirror="false"
       vertical_mirror="false"
       overflow_perspective="false" />
  </defs>
  <sodipodi:namedview
     id="base"
     pagecolor="#ffffff"
     bordercolor="#666666"
     borderopacity="1.0"
     inkscape:pageopacity="0.0"
     inkscape:pageshadow="2"
     inkscape:zoom="1.1"
     inkscape:cx="332.45536"
     inkscape:cy="32.440511"
     inkscape:document-units="px"
     inkscape:current-layer="layer1"
     inkscape:document-rotation="0"
     showgrid="false"
     showborder="true"
     inkscape:window-width="1920"
     inkscape:window-height="1017"
     inkscape:window-x="-8"
     inkscape:window-y="-7"
     inkscape:window-maximized="1"
     inkscape:object-nodes="true"
     inkscape:snap-smooth-nodes="false"
     inkscape:object-paths="true"
     inkscape:snap-global="false"
     units="px"
     viewbox-width="509.7"
     fit-margin-top="0"
     fit-margin-left="0"
     fit-margin-right="0"
     fit-margin-bottom="0" />
  <metadata
     id="metadata5">
    <rdf:RDF>
      <cc:Work
         rdf:about="">
        <dc:format>image/svg+xml</dc:format>
        <dc:type
           rdf:resource="http://purl.org/dc/dcmitype/StillImage" />
        <dc:title></dc:title>
      </cc:Work>
    </rdf:RDF>
  </metadata>
  <g
     inkscape:label="Layer 1"
     inkscape:groupmode="layer"
     id="layer1"
     style="display:inline"
     transform="translate(-836.0885,-1.1651299)">
    <g
       id="g1250"
       inkscape:export-xdpi="99.732208"
       inkscape:export-ydpi="99.732208"
       transform="translate(0,0.53093751)">
      <text
         xml:space="preserve"
         style="font-style:normal;font-variant:normal;font-weight:bold;font-stretch:normal;font-size:31.264px;line-height:1.25;font-family:Consolas;-inkscape-font-specification:'Consolas, Bold';font-variant-ligatures:normal;font-variant-caps:normal;font-variant-numeric:normal;font-variant-east-asian:normal;letter-spacing:-8.31953px;word-spacing:0px;fill:#000000;fill-opacity:1;stroke:none;stroke-width:0.450923"
         x="833.76813"
         y="28.935492"
         id="text1022-9"><tspan
           sodipodi:role="line"
           id="tspan1020-9"
           x="833.76813"
           y="28.935492"
           style="font-style:normal;font-variant:normal;font-weight:bold;font-stretch:normal;font-size:31.264px;font-family:Consolas;-inkscape-font-specification:'Consolas, Bold';font-variant-ligatures:normal;font-variant-caps:normal;font-variant-numeric:normal;font-variant-east-asian:normal;stroke-width:0.450923">{{</tspan></text>
      <text
         xml:space="preserve"
         style="font-style:normal;font-variant:normal;font-weight:bold;font-stretch:normal;font-size:31.264px;line-height:1.25;font-family:Consolas;-inkscape-font-specification:'Consolas, Bold';font-variant-ligatures:normal;font-variant-caps:normal;font-variant-numeric:normal;font-variant-east-asian:normal;letter-spacing:-8.31953px;word-spacing:0px;fill:#000000;fill-opacity:1;stroke:none;stroke-width:0.450923"
         x="1017.9678"
         y="28.935492"
         id="text1026-8"><tspan
           sodipodi:role="line"
           id="tspan1024-6"
           x="1017.9678"
           y="28.935492"
           style="stroke-width:0.450923">}}</tspan></text>
      <g
         id="g1240"
         transform="translate(0.16129623)">
        <rect
           style="fill:#000000;fill-opacity:1;stroke:none;stroke-width:2.90595;stroke-miterlimit:4;stroke-dasharray:none"
           id="rect1018-4"
           width="161.13948"
           height="40.88549"
           x="858.16626"
           y="0.67085874"
           ry="0"
           rx="0" />
        <path
           id="path1028-3"
           style="fill:#595959;fill-opacity:1;stroke:none;stroke-width:0.901848;stroke-opacity:0.6"
           d="m 982.85863,8.3485776 v 6.0601734 l -1.05333,-0.199042 -1.1599,-0.07482 -3.19081,0.502881 -2.53381,1.526266 -1.67862,2.596331 -0.2695,1.671589 v -2.41491 l -3.60828,-3.608263 h -3.72539 v 9.815522 l -1.83188,2.09256 -0.0873,0.037 v -8.336799 l -3.60826,-3.608263 h -3.72364 v 7.796052 l -0.0873,-0.92035 -0.91506,-2.000973 -3.6074,-3.608263 -1.52715,-1.189841 -2.07583,-0.41218 -1.57294,0.182307 -1.31226,0.535484 -0.95557,0.723057 -1.1053,-1.105293 h -3.37399 v 15.509302 l 3.60738,3.60826 h 3.81789 v -9.81551 l 1.92257,-2.22908 0.75125,-0.302081 2.86671,2.866721 h 3.56689 v 0.77415 l 0.28974,2.24404 0.90185,1.70945 3.6074,3.60828 1.47958,1.11498 2.09257,0.38135 1.52539,-0.19905 1.28407,-0.5205 1.02956,-0.78559 1.15284,1.15284 h 3.22164 v -8.30068 l 0.0545,0.46413 1.09914,2.47304 3.60738,3.60739 1.80193,1.55797 2.44398,0.55045 1.49455,-0.19905 1.28145,-0.5205 1.05597,-0.79264 1.15988,1.15989 h 3.21901 V 11.956892 l -3.6074,-3.6082804 z m -54.05621,1.09914 -3.81525,0.9916684 v 3.969365 h -4.16752 v 1.649571 l -1.64957,-1.649571 h -4.18248 l -2.86583,4.255582 -0.44211,-0.647319 -3.60739,-3.608263 h -4.53389 l 5.51146,7.694764 -5.61452,7.54415 -2.92836,-2.92835 h 4.18162 l 0.0617,-1.14581 0.0308,-0.99168 -0.44299,-2.77951 -1.29905,-2.181525 -3.60827,-3.608262 -2.11988,-1.419715 -2.91602,-0.519617 -3.02347,0.610336 -2.28985,1.709459 -1.46462,2.657105 -0.51962,3.433879 0.51962,3.35903 1.49632,2.44221 3.60828,3.60827 2.38055,1.48047 3.17495,0.50465 1.45054,-0.0617 1.48135,-0.15322 1.43467,-0.24308 1.2973,-0.30561 v -2.48976 l 2.90017,2.90105 h 4.50308 l 2.97503,-4.36743 0.51521,0.75917 3.60828,3.60826 h 4.62547 l -5.63301,-7.84535 4.82894,-6.926797 2.1639,2.163035 h 0.55924 v 3.963192 l 0.33556,2.42812 1.06831,1.66365 3.60826,3.60828 1.83188,0.97582 2.64037,0.32235 1.93931,-0.13822 2.02916,-0.36639 v -2.97679 l -3.60739,-3.60826 -1.58704,0.35138 -0.83491,0.0714 v -6.294422 h 6.02934 v -2.900187 l -3.60739,-3.608263 h -2.42195 v -1.35277 z m -59.24536,0.519617 v 3.1291564 l 3.60739,3.608263 h 1.8583 v 13.213301 l 3.60739,3.60826 h 3.84693 V 16.704754 h 5.46569 v -3.129156 l -3.60827,-3.6082634 z m 127.97242,4.1058614 -3.02346,0.610336 -2.28898,1.709459 -1.46549,2.657105 -0.51962,3.433879 0.51962,3.35903 1.49632,2.44221 3.60826,3.60827 2.38057,1.48047 3.1749,0.50465 1.4506,-0.0617 1.4804,-0.15322 1.4356,-0.24308 1.2964,-0.30561 v -2.96181 l -3.433,-3.4339 h 4.1816 l 0.062,-1.1458 0.03,-0.99169 -0.443,-2.77951 -1.2964,-2.181522 -3.6082,-3.608262 -2.1217,-1.419715 z" />
        <path
           id="path1030-4"
           style="font-style:normal;font-variant:normal;font-weight:bold;font-stretch:normal;font-size:18.3444px;line-height:1.25;font-family:Consolas;-inkscape-font-specification:'Consolas, Bold';font-variant-ligatures:normal;font-variant-caps:normal;font-variant-numeric:normal;font-variant-east-asian:normal;letter-spacing:0px;word-spacing:0px;fill:#ffffff;fill-opacity:1;stroke:none;stroke-width:1.70428"
           d="m 982.85963,8.3488846 v 6.0604124 c -0.30506,-0.08181 -0.65614,-0.148273 -1.05324,-0.199401 -0.38687,-0.05113 -0.77374,-0.07499 -1.16061,-0.07499 -1.15039,0 -2.21386,0.167019 -3.19041,0.502762 -0.97655,0.327221 -1.82187,0.835096 -2.53426,1.527033 -0.71239,0.681711 -1.27139,1.547484 -1.67872,2.595615 -0.39709,1.037905 -0.59479,2.268393 -0.59479,3.693169 0,1.19129 0.12612,2.2701 0.38006,3.23643 0.25564,0.96803 0.62206,1.79119 1.09926,2.4729 0.48912,0.67319 1.08903,1.19129 1.80142,1.55771 0.71238,0.36642 1.52703,0.55048 2.44393,0.55048 0.54878,0 1.04643,-0.0665 1.49465,-0.1994 0.45845,-0.121 0.88623,-0.29484 1.28162,-0.5198 0.3971,-0.23349 0.77033,-0.51299 1.1163,-0.83851 0.34597,-0.32551 0.68171,-0.68682 1.00723,-1.08392 l 0.092,2.28885 h 3.21938 V 8.3488846 Z m -54.05627,1.099259 -3.81588,0.9918904 v 3.969263 h -4.16696 v 2.90068 h 4.16696 v 7.570398 c 0,0.93736 0.11078,1.74689 0.33574,2.4286 0.23349,0.67148 0.58968,1.22708 1.06859,1.66337 0.48912,0.438 1.09926,0.76352 1.83209,0.97656 0.74307,0.21473 1.62248,0.3221 2.63993,0.3221 0.61184,0 1.25776,-0.046 1.93947,-0.13804 0.68171,-0.092 1.35831,-0.21304 2.02979,-0.36642 v -2.97738 c -0.47719,0.13294 -1.00722,0.25053 -1.58668,0.35109 -0.58116,0.10225 -1.17595,0.15338 -1.78608,0.15338 -0.95781,0 -1.63781,-0.22496 -2.04514,-0.67148 -0.40732,-0.45846 -0.61183,-1.12994 -0.61183,-2.01616 v -7.296018 h 6.02973 v -2.90068 h -6.02973 z m -59.24581,0.519805 v 3.1290544 h 5.46562 v 16.821222 h 3.84656 V 13.097003 h 5.46562 V 9.9679486 Z m 24.83815,4.1056054 c -1.10949,0 -2.11842,0.204513 -3.02339,0.610131 -0.89475,0.397097 -1.65826,0.966326 -2.29055,1.709391 -0.63058,0.732839 -1.11801,1.619064 -1.46398,2.656969 -0.34596,1.027679 -0.5198,2.172954 -0.5198,3.43412 0,1.27309 0.17384,2.3911 0.5198,3.35913 0.34597,0.96633 0.84362,1.78097 1.49636,2.44223 0.65103,0.65103 1.44352,1.14528 2.38088,1.48102 0.93564,0.33574 1.994,0.50446 3.17506,0.50446 0.46698,0 0.95099,-0.0205 1.45035,-0.0614 0.49764,-0.0307 0.99188,-0.0818 1.48101,-0.15338 0.48743,-0.0716 0.96633,-0.15169 1.435,-0.24372 0.46868,-0.092 0.89986,-0.19428 1.29696,-0.30506 v -2.96204 c -0.92542,0.26417 -1.82187,0.45845 -2.68765,0.57946 -0.85384,0.11248 -1.65826,0.16872 -2.40985,0.16872 -0.65273,0 -1.24753,-0.092 -1.78608,-0.27439 -0.53003,-0.18406 -0.98848,-0.44822 -1.37535,-0.79419 -0.37665,-0.3562 -0.67149,-0.79419 -0.88452,-1.31229 -0.20451,-0.51981 -0.30507,-1.11972 -0.30507,-1.80143 h 10.1967 c 0.0307,-0.35619 0.0511,-0.73795 0.0614,-1.14527 0.0205,-0.40732 0.0307,-0.737953 0.0307,-0.991891 0,-1.008932 -0.14827,-1.934355 -0.44311,-2.779677 -0.29484,-0.843617 -0.72773,-1.571344 -1.29866,-2.181475 -0.56923,-0.611836 -1.27651,-1.083921 -2.12012,-1.419663 -0.84533,-0.345969 -1.81847,-0.519805 -2.91602,-0.519805 z m 53.78018,0 c -0.57093,0 -1.09414,0.06135 -1.57304,0.182358 -0.4772,0.122708 -0.9152,0.301657 -1.3123,0.535143 -0.38687,0.22326 -0.74306,0.49424 -1.06858,0.809532 -0.31529,0.315291 -0.59991,0.671485 -0.85555,1.068582 l -0.13634,-2.259872 h -3.37447 v 15.508928 h 3.81758 v -9.814937 c 0.70216,-1.037905 1.34297,-1.78097 1.92243,-2.229195 0.59138,-0.458451 1.16061,-0.686824 1.70939,-0.686824 0.31529,0 0.59649,0.06135 0.84021,0.182358 0.24541,0.122708 0.44822,0.316996 0.61013,0.581159 0.17383,0.264163 0.29484,0.599905 0.36642,1.007228 0.0818,0.407322 0.11248,0.901563 0.092,1.481017 h 3.74089 c 0.0307,-1.048131 -0.0562,-1.968441 -0.26076,-2.762634 -0.19258,-0.804419 -0.49765,-1.470792 -0.91519,-2.000822 -0.40733,-0.528326 -0.9152,-0.925423 -1.52704,-1.189586 -0.5999,-0.276093 -1.29184,-0.412435 -2.07581,-0.412435 z m 49.35418,0 c -1.10949,0 -2.11672,0.204513 -3.02339,0.610131 -0.89475,0.397097 -1.65826,0.966326 -2.28885,1.709391 -0.63228,0.732839 -1.11971,1.619064 -1.46568,2.656969 -0.34596,1.027679 -0.5198,2.172954 -0.5198,3.43412 0,1.27309 0.17384,2.3911 0.5198,3.35913 0.34597,0.96633 0.84362,1.78097 1.49636,2.44223 0.65103,0.65103 1.44523,1.14528 2.38088,1.48102 0.93564,0.33574 1.994,0.50446 3.17507,0.50446 0.46867,0 0.95098,-0.0205 1.45034,-0.0614 0.49935,-0.0307 0.99191,-0.0818 1.48101,-0.15338 0.4874,-0.0716 0.9663,-0.15169 1.435,-0.24372 0.467,-0.092 0.8999,-0.19428 1.297,-0.30506 v -2.96204 c -0.9255,0.26417 -1.8219,0.45845 -2.686,0.57946 -0.85553,0.11248 -1.65995,0.16872 -2.41324,0.16872 -0.65103,0 -1.24583,-0.092 -1.78608,-0.27439 -0.52833,-0.18406 -0.98678,-0.44822 -1.37365,-0.79419 -0.37665,-0.3562 -0.67149,-0.79419 -0.88452,-1.31229 -0.20451,-0.51981 -0.30677,-1.11972 -0.30677,-1.80143 h 10.19836 c 0.031,-0.35619 0.051,-0.73795 0.061,-1.14527 0.021,-0.40732 0.031,-0.737953 0.031,-0.991891 0,-1.008932 -0.1482,-1.934355 -0.4431,-2.779677 -0.2948,-0.843617 -0.7277,-1.571344 -1.2969,-2.181475 -0.571,-0.611836 -1.2782,-1.083921 -2.1219,-1.419663 -0.84528,-0.345969 -1.81671,-0.519805 -2.91597,-0.519805 z m -93.99091,0.335743 5.51163,7.694818 -5.8167,7.81411 h 4.5027 l 3.55683,-5.2202 3.54149,5.2202 h 4.62541 l -5.63264,-7.84479 5.34291,-7.664138 h -4.1823 l -3.43412,5.099198 -3.48184,-5.099198 z m 52.84965,0 v 10.411428 c 0,0.82317 0.0971,1.57135 0.28973,2.24454 0.20451,0.66126 0.50446,1.23049 0.90156,1.70939 0.39709,0.4772 0.88963,0.85043 1.47931,1.1146 0.60161,0.25393 1.29866,0.38175 2.09285,0.38175 0.55901,0 1.06859,-0.0665 1.52533,-0.1994 0.46868,-0.121 0.89645,-0.29484 1.28332,-0.5198 0.3971,-0.23349 0.76352,-0.51299 1.09926,-0.83851 0.33575,-0.32551 0.66638,-0.68682 0.99189,-1.08392 l 0.092,2.28885 h 3.22108 V 14.409297 h -3.72554 v 9.814938 c -0.64081,0.876 -1.25094,1.57305 -1.8321,2.09285 -0.56923,0.50787 -1.16402,0.76181 -1.78608,0.76181 -0.64081,0 -1.11971,-0.21303 -1.43501,-0.64081 -0.31529,-0.438 -0.47379,-1.0788 -0.47379,-1.92413 V 14.409297 Z m -62.0698,2.44223 c 0.42778,0 0.82317,0.07158 1.18959,0.214739 0.37664,0.141455 0.70387,0.361306 0.97825,0.656146 0.28462,0.29484 0.50788,0.671486 0.67149,1.129937 0.16191,0.44652 0.2386,0.976551 0.22837,1.586682 h -6.44217 c 0.11249,-1.140162 0.46868,-2.019569 1.06859,-2.639926 0.60161,-0.632287 1.37024,-0.947578 2.30588,-0.947578 z m 103.13436,0 c 0.42778,0 0.82317,0.07158 1.18959,0.214739 0.37665,0.141455 0.70387,0.361306 0.97826,0.656146 0.28461,0.29484 0.50789,0.671486 0.67149,1.129937 0.1619,0.44652 0.2386,0.976551 0.2284,1.586682 h -6.4405 c 0.11078,-1.140162 0.46697,-2.019569 1.06688,-2.639926 0.60161,-0.632287 1.36853,-0.947578 2.30588,-0.947578 z m -16.99164,0.214739 c 0.43799,0 0.87088,0.03409 1.29865,0.105665 0.438,0.07158 0.80442,0.16361 1.09926,0.274388 v 6.777916 c -0.6408,0.88622 -1.24753,1.58327 -1.81676,2.09285 -0.57093,0.50787 -1.17083,0.76181 -1.80142,0.76181 -0.42777,0 -0.80953,-0.0852 -1.14527,-0.25905 -0.33574,-0.18236 -0.62036,-0.46697 -0.85385,-0.85384 -0.22496,-0.38687 -0.39709,-0.88111 -0.5198,-1.48102 -0.11248,-0.61013 -0.16872,-1.34297 -0.16872,-2.19852 0,-0.80442 0.092,-1.52703 0.27609,-2.167838 0.18236,-0.651034 0.44141,-1.201516 0.77885,-1.649741 0.34597,-0.446521 0.7567,-0.792489 1.23561,-1.036201 0.4789,-0.245416 1.01745,-0.366419 1.61736,-0.366419 z" />
      </g>
    </g>
  </g>
</svg>
